<svg width="498" height="125" viewBox="0 0 498 125" fill="none" xmlns="http://www.w3.org/2000/svg">
<rect x="1.5" y="27.5" width="45" height="96" stroke="black" stroke-width="3"/>
<rect x="15.5" y="15.5" width="46" height="96" stroke="black" stroke-width="3"/>
<rect x="29" y="2" width="45" height="95" stroke="black" stroke-width="4"/>
<rect x="30" y="3" width="43" height="93" rx="3" fill="#BD9848"/>
<circle cx="63" cy="50" r="4" fill="black"/>
<path d="M148.159 43.665C150.825 43.665 153.176 44.224 155.211 45.342C157.246 46.4313 158.837 48.1227 159.984 50.416C161.159 52.7093 161.747 55.662 161.747 59.274V80H148.89V61.252C148.89 58.7867 148.517 56.7943 147.772 55.275C147.027 53.7557 145.55 52.996 143.343 52.996C142.024 52.996 140.863 53.34 139.86 54.028C138.857 54.716 138.083 55.6763 137.538 56.909C136.993 58.113 136.721 59.5607 136.721 61.252V80H124.724V61.252C124.724 58.7867 124.308 56.7943 123.477 55.275C122.674 53.7557 121.241 52.996 119.177 52.996C117.858 52.996 116.697 53.34 115.694 54.028C114.691 54.6873 113.917 55.6333 113.372 56.866C112.856 58.07 112.598 59.532 112.598 61.252V80H99.612V44.697H112.598V49.728C112.942 48.8393 113.687 47.9363 114.834 47.019C116.009 46.073 117.457 45.2847 119.177 44.654C120.897 43.9947 122.717 43.665 124.638 43.665C126.731 43.665 128.479 43.9803 129.884 44.611C131.289 45.213 132.435 46.03 133.324 47.062C134.241 48.094 134.972 49.212 135.517 50.416C135.918 49.384 136.707 48.352 137.882 47.32C139.086 46.2593 140.577 45.385 142.354 44.697C144.16 44.009 146.095 43.665 148.159 43.665ZM186.691 68.691L196.237 44.697H209.051L184.799 97.888H171.727L179.897 80L165.148 44.697H178.177L186.691 68.691ZM227.855 81.032C224.443 81.032 221.476 80.2007 218.954 78.538C216.431 76.8467 214.467 74.5963 213.063 71.787C211.687 68.949 210.999 65.81 210.999 62.37C210.999 58.93 211.687 55.8053 213.063 52.996C214.467 50.158 216.431 47.8933 218.954 46.202C221.476 44.5107 224.443 43.665 227.855 43.665C230.119 43.665 232.126 44.0233 233.875 44.74C235.623 45.428 237.042 46.2593 238.132 47.234C239.221 48.18 239.88 49.0543 240.11 49.857V20.832H253.182V80H240.239V74.281C239.694 75.3417 238.805 76.4023 237.573 77.463C236.34 78.495 234.892 79.3407 233.23 80C231.567 80.688 229.775 81.032 227.855 81.032ZM231.854 70.755C233.43 70.755 234.835 70.3967 236.068 69.68C237.329 68.9633 238.318 67.9743 239.035 66.713C239.751 65.423 240.11 63.9753 240.11 62.37C240.11 60.7647 239.751 59.3313 239.035 58.07C238.318 56.78 237.329 55.7767 236.068 55.06C234.835 54.3147 233.43 53.942 231.854 53.942C230.334 53.942 228.958 54.3147 227.726 55.06C226.522 55.7767 225.561 56.78 224.845 58.07C224.157 59.3313 223.813 60.7647 223.813 62.37C223.813 63.9753 224.157 65.423 224.845 66.713C225.561 67.9743 226.522 68.9633 227.726 69.68C228.958 70.3967 230.334 70.755 231.854 70.755ZM278.302 81.032C274.432 81.032 270.992 80.2437 267.982 78.667C265.001 77.0617 262.65 74.8687 260.93 72.088C259.239 69.2787 258.393 66.068 258.393 62.456C258.393 58.844 259.239 55.6333 260.93 52.824C262.65 49.986 265.001 47.75 267.982 46.116C270.992 44.482 274.432 43.665 278.302 43.665C282.172 43.665 285.583 44.482 288.536 46.116C291.489 47.75 293.796 49.986 295.459 52.824C297.122 55.6333 297.953 58.844 297.953 62.456C297.953 66.068 297.122 69.2787 295.459 72.088C293.796 74.8687 291.489 77.0617 288.536 78.667C285.583 80.2437 282.172 81.032 278.302 81.032ZM278.302 70.282C279.793 70.282 281.083 69.9523 282.172 69.293C283.261 68.6337 284.107 67.702 284.709 66.498C285.311 65.294 285.612 63.9323 285.612 62.413C285.612 60.865 285.311 59.489 284.709 58.285C284.107 57.081 283.261 56.135 282.172 55.447C281.083 54.759 279.793 54.415 278.302 54.415C276.811 54.415 275.507 54.759 274.389 55.447C273.3 56.135 272.44 57.081 271.809 58.285C271.207 59.489 270.906 60.865 270.906 62.413C270.906 63.9323 271.207 65.294 271.809 66.498C272.44 67.702 273.3 68.6337 274.389 69.293C275.507 69.9523 276.811 70.282 278.302 70.282ZM316.28 80H303.208V44.697H316.28V50.158H316.065C316.294 49.4987 316.853 48.6673 317.742 47.664C318.63 46.632 319.877 45.7147 321.483 44.912C323.088 44.0807 325.052 43.665 327.374 43.665C329.008 43.665 330.513 43.923 331.889 44.439C333.265 44.9263 334.268 45.3993 334.899 45.858L329.825 56.479C329.423 55.9917 328.707 55.49 327.675 54.974C326.671 54.4293 325.41 54.157 323.891 54.157C322.142 54.157 320.694 54.6013 319.548 55.49C318.43 56.3787 317.598 57.4537 317.054 58.715C316.538 59.9763 316.28 61.166 316.28 62.284V80ZM386.54 43.665C389.206 43.665 391.557 44.224 393.592 45.342C395.628 46.4313 397.219 48.1227 398.365 50.416C399.541 52.7093 400.128 55.662 400.128 59.274V80H387.271V61.252C387.271 58.7867 386.899 56.7943 386.153 55.275C385.408 53.7557 383.932 52.996 381.724 52.996C380.406 52.996 379.245 53.34 378.241 54.028C377.238 54.716 376.464 55.6763 375.919 56.909C375.375 58.113 375.102 59.5607 375.102 61.252V80H363.105V61.252C363.105 58.7867 362.69 56.7943 361.858 55.275C361.056 53.7557 359.622 52.996 357.558 52.996C356.24 52.996 355.079 53.34 354.075 54.028C353.072 54.6873 352.298 55.6333 351.753 56.866C351.237 58.07 350.979 59.532 350.979 61.252V80H337.993V44.697H350.979V49.728C351.323 48.8393 352.069 47.9363 353.215 47.019C354.391 46.073 355.838 45.2847 357.558 44.654C359.278 43.9947 361.099 43.665 363.019 43.665C365.112 43.665 366.861 43.9803 368.265 44.611C369.67 45.213 370.817 46.03 371.705 47.062C372.623 48.094 373.354 49.212 373.898 50.416C374.3 49.384 375.088 48.352 376.263 47.32C377.467 46.2593 378.958 45.385 380.735 44.697C382.541 44.009 384.476 43.665 386.54 43.665ZM407.7 80V44.697H420.772V80H407.7ZM414.408 37.43C412.344 37.43 410.596 36.7133 409.162 35.28C407.729 33.818 407.012 32.0837 407.012 30.077C407.012 28.0703 407.729 26.336 409.162 24.874C410.624 23.3833 412.373 22.638 414.408 22.638C415.756 22.638 416.988 22.982 418.106 23.67C419.224 24.3293 420.127 25.218 420.815 26.336C421.503 27.454 421.847 28.701 421.847 30.077C421.847 32.0837 421.116 33.818 419.654 35.28C418.192 36.7133 416.444 37.43 414.408 37.43ZM439.754 65.122C439.84 66.3833 440.241 67.5013 440.958 68.476C441.675 69.4507 442.664 70.2247 443.925 70.798C445.215 71.3427 446.734 71.615 448.483 71.615C450.146 71.615 451.636 71.443 452.955 71.099C454.302 70.755 455.463 70.325 456.438 69.809C457.441 69.293 458.215 68.7627 458.76 68.218L463.834 76.302C463.117 77.076 462.1 77.8357 460.781 78.581C459.491 79.2977 457.785 79.8853 455.664 80.344C453.543 80.8027 450.862 81.032 447.623 81.032C443.724 81.032 440.256 80.301 437.217 78.839C434.178 77.377 431.785 75.227 430.036 72.389C428.287 69.551 427.413 66.0823 427.413 61.983C427.413 58.543 428.158 55.447 429.649 52.695C431.168 49.9143 433.361 47.7213 436.228 46.116C439.095 44.482 442.549 43.665 446.591 43.665C450.432 43.665 453.758 44.3673 456.567 45.772C459.405 47.1767 461.584 49.2693 463.103 52.05C464.651 54.802 465.425 58.242 465.425 62.37C465.425 62.5993 465.411 63.058 465.382 63.746C465.382 64.434 465.353 64.8927 465.296 65.122H439.754ZM453.127 58.285C453.098 57.3677 452.855 56.4647 452.396 55.576C451.937 54.6587 451.249 53.9133 450.332 53.34C449.415 52.738 448.239 52.437 446.806 52.437C445.373 52.437 444.154 52.7237 443.151 53.297C442.176 53.8417 441.431 54.5583 440.915 55.447C440.399 56.3357 440.112 57.2817 440.055 58.285H453.127ZM480.522 81.032C478.401 81.032 476.566 80.2723 475.018 78.753C473.499 77.205 472.739 75.3703 472.739 73.249C472.739 71.0703 473.499 69.2213 475.018 67.702C476.566 66.154 478.401 65.38 480.522 65.38C482.701 65.38 484.55 66.154 486.069 67.702C487.588 69.2213 488.348 71.0703 488.348 73.249C488.348 75.3703 487.588 77.205 486.069 78.753C484.55 80.2723 482.701 81.032 480.522 81.032Z" fill="#EFEEDB"/>
</svg>
